<?xml version="1.0" standalone="no"?>
<!DOCTYPE svg PUBLIC "-//W3C//DTD SVG 20010904//EN"
 "http://www.w3.org/TR/2001/REC-SVG-20010904/DTD/svg10.dtd">
<svg version="1.0" xmlns="http://www.w3.org/2000/svg"
 width="1981.000000pt" height="1981.000000pt" viewBox="0 0 1981.000000 1981.000000"
 preserveAspectRatio="xMidYMid meet">
<metadata>
Created by potrace 1.14, written by Peter Selinger 2001-2017
</metadata>
<g transform="translate(0.000000,1981.000000) scale(0.100000,-0.100000)"
fill="#000000" stroke="none">
<path d="M9549 17516 c-2 -2 -60 -7 -129 -11 -165 -10 -174 -11 -250 -19 -36
-4 -87 -9 -115 -12 -74 -8 -332 -43 -358 -49 -12 -2 -38 -7 -57 -9 -207 -30
-642 -130 -880 -202 -63 -19 -137 -42 -165 -50 -74 -22 -365 -124 -400 -140
-16 -7 -60 -24 -98 -38 -37 -14 -82 -32 -100 -40 -17 -7 -102 -44 -187 -82
-198 -87 -562 -271 -670 -339 -22 -14 -42 -25 -45 -25 -13 0 -513 -318 -535
-340 -3 -3 -34 -25 -70 -50 -149 -102 -428 -323 -605 -479 -1098 -969 -1882
-2196 -2290 -3586 -65 -223 -142 -541 -170 -705 -3 -19 -8 -42 -10 -50 -2 -8
-6 -33 -10 -55 -3 -22 -12 -78 -20 -125 -16 -93 -51 -367 -60 -470 -3 -36 -8
-81 -10 -100 -27 -224 -27 -1107 0 -1270 2 -14 7 -59 10 -100 3 -41 8 -91 10
-110 3 -19 7 -53 9 -75 73 -596 212 -1173 413 -1715 299 -806 702 -1510 1256
-2195 226 -279 627 -693 881 -910 33 -27 64 -55 70 -60 37 -36 259 -212 384
-306 131 -99 571 -399 585 -399 3 0 34 -18 68 -40 384 -239 963 -506 1464
-676 341 -116 870 -251 1135 -289 25 -4 81 -13 125 -20 44 -8 139 -21 210 -30
183 -22 191 -23 275 -30 41 -3 95 -8 120 -10 273 -25 854 -25 1165 0 168 14
430 43 535 60 504 80 847 162 1280 305 450 149 865 331 1285 564 225 124 204
112 445 266 164 106 524 360 550 390 3 3 50 41 105 84 55 44 102 82 105 85 3
4 34 31 70 61 36 30 70 60 76 65 308 276 605 582 829 855 38 47 72 87 76 90 3
3 21 26 40 51 19 26 73 98 120 160 187 248 403 578 536 819 362 656 583 1212
752 1885 56 228 120 536 136 665 3 25 10 70 15 100 11 61 15 93 25 195 4 39 9
78 11 87 1 9 6 59 9 110 4 51 8 100 10 108 25 103 25 988 0 1185 -2 17 -7 66
-10 110 -3 44 -12 132 -20 195 -8 63 -17 135 -20 159 -3 23 -7 55 -10 70 -2
14 -13 82 -24 151 -11 69 -23 134 -25 145 -2 11 -16 79 -31 150 -158 768 -471
1581 -870 2260 -229 391 -539 827 -803 1130 -123 141 -200 223 -387 410 -241
242 -291 289 -495 460 -52 44 -97 83 -100 86 -16 18 -338 259 -465 347 -141
98 -420 275 -530 337 -172 97 -230 128 -405 215 -281 141 -604 279 -840 360
-36 12 -74 26 -85 30 -34 15 -263 86 -380 119 -179 51 -240 67 -285 76 -8 2
-67 15 -130 30 -151 35 -131 31 -320 65 -170 30 -334 55 -430 65 -30 3 -75 8
-100 11 -25 3 -58 7 -75 9 -16 2 -68 6 -115 10 -47 3 -105 8 -130 11 -53 6
-865 15 -871 10z"/>
</g>
</svg>
