<svg width="32" height="32" viewBox="0 0 32 32" fill="none" xmlns="http://www.w3.org/2000/svg">
<path fill-rule="evenodd" clip-rule="evenodd" d="M16 0C24.8365 0 31.9999 7.16348 31.9999 15.9998C31.9999 24.8365 24.8365 32 16 32C7.16341 32 0 24.8365 0 15.9998C0 7.16348 7.16341 0 16 0Z" fill="#070716"/>
<g clip-path="url(#clip0_137366_32)">
<path d="M23.9952 12.7163C23.9577 11.8661 23.8203 11.2816 23.6233 10.7752C23.4202 10.2376 23.1076 9.75632 22.6981 9.35622C22.298 8.94989 21.8135 8.63415 21.2822 8.43416C20.7728 8.23723 20.1914 8.09975 19.3412 8.06227C18.4847 8.02161 18.2128 8.01221 16.0405 8.01221C13.8682 8.01221 13.5963 8.02161 12.743 8.05909C11.8929 8.09657 11.3084 8.23417 10.8021 8.43099C10.2644 8.63415 9.7831 8.94672 9.383 9.35622C8.97667 9.75632 8.66106 10.2408 8.46094 10.7721C8.26401 11.2816 8.12653 11.8629 8.08904 12.7131C8.04839 13.5696 8.03899 13.8415 8.03899 16.0138C8.03899 18.1861 8.04839 18.458 8.08587 19.3113C8.12335 20.1614 8.26095 20.7459 8.45789 21.2523C8.66106 21.7899 8.97667 22.2712 9.383 22.6713C9.7831 23.0777 10.2676 23.3934 10.7989 23.5934C11.3084 23.7903 11.8897 23.9278 12.74 23.9653C13.5932 24.0029 13.8652 24.0122 16.0375 24.0122C18.2098 24.0122 18.4817 24.0029 19.335 23.9653C20.1852 23.9278 20.7696 23.7903 21.2759 23.5934C22.3512 23.1776 23.2014 22.3275 23.6171 21.2523C23.8139 20.7428 23.9515 20.1614 23.989 19.3113C24.0265 18.458 24.0359 18.1861 24.0359 16.0138C24.0359 13.8415 24.0327 13.5696 23.9952 12.7163ZM22.5544 19.2488C22.52 20.0302 22.3887 20.4521 22.2793 20.7334C22.0105 21.4305 21.4573 21.9837 20.7602 22.2525C20.4789 22.3619 20.0539 22.4932 19.2756 22.5275C18.4316 22.5651 18.1785 22.5744 16.0437 22.5744C13.9089 22.5744 13.6526 22.5651 12.8118 22.5275C12.0304 22.4932 11.6084 22.3619 11.3271 22.2525C10.9802 22.1243 10.6645 21.9212 10.4082 21.6555C10.1425 21.396 9.93938 21.0835 9.81118 20.7366C9.70179 20.4553 9.57053 20.0302 9.53623 19.252C9.49862 18.408 9.48934 18.1548 9.48934 16.02C9.48934 13.8852 9.49862 13.6289 9.53623 12.7882C9.57053 12.0068 9.70179 11.5848 9.81118 11.3035C9.93938 10.9565 10.1425 10.6409 10.4114 10.3845C10.6707 10.1188 10.9833 9.91566 11.3303 9.78758C11.6116 9.67818 12.0367 9.54693 12.8149 9.5125C13.6589 9.47502 13.9121 9.46562 16.0468 9.46562C18.1848 9.46562 18.4379 9.47502 19.2787 9.5125C20.0601 9.54693 20.4821 9.67818 20.7634 9.78758C21.1103 9.91566 21.426 10.1188 21.6823 10.3845C21.9479 10.6439 22.1511 10.9565 22.2793 11.3035C22.3887 11.5848 22.52 12.0098 22.5544 12.7882C22.5919 13.6321 22.6013 13.8852 22.6013 16.02C22.6013 18.1548 22.5919 18.4049 22.5544 19.2488Z" fill="white"/>
<path d="M16.0405 11.9038C13.7714 11.9038 11.9304 13.7447 11.9304 16.014C11.9304 18.2832 13.7714 20.1242 16.0405 20.1242C18.3098 20.1242 20.1507 18.2832 20.1507 16.014C20.1507 13.7447 18.3098 11.9038 16.0405 11.9038ZM16.0405 18.6802C14.5685 18.6802 13.3744 17.4862 13.3744 16.014C13.3744 14.5418 14.5685 13.3478 16.0405 13.3478C17.5128 13.3478 18.7067 14.5418 18.7067 16.014C18.7067 17.4862 17.5128 18.6802 16.0405 18.6802V18.6802Z" fill="white"/>
<path d="M21.2729 11.7408C21.2729 12.2707 20.8433 12.7003 20.3132 12.7003C19.7833 12.7003 19.3537 12.2707 19.3537 11.7408C19.3537 11.2108 19.7833 10.7812 20.3132 10.7812C20.8433 10.7812 21.2729 11.2108 21.2729 11.7408V11.7408Z" fill="white"/>
</g>
<defs>
<clipPath id="clip0_137366_32">
<rect width="16" height="16" fill="white" transform="translate(8.01088 8.01221)"/>
</clipPath>
</defs>
</svg>
